/* XPM */
static char *_5627826c80940c5a9f3c71899a2df1bjkP270L33rqj7c8i[] = {
/* columns rows colors chars-per-pixel */
"32 32 15 1 ",
"  c black",
". c #060608",
"X c #34292E",
"o c #3A2A28",
"O c #4D3431",
"+ c #5B3C38",
"@ c #59413E",
"# c #514047",
"$ c #77514C",
"% c #AC3232",
"& c #DF7126",
"* c #8D5D57",
"= c #847E87",
"- c #9BADB7",
"; c white",
/* pixels */
"##$$$$$$$$$$######  $$$$$$$$####",
"##$$$$$$$$$$######  $$$$$$$$####",
"$$$$$$$$$$$$$$##..%%  $$$$$$**##",
"$$$$$$$$$$$$$$##..%%  $$$$$$**##",
"$$$$$$$$$$$$    ........$$$$**##",
"$$$$$$$$$$$$    ........$$$$**##",
"$$$$$$$$$$..====--------..$$**##",
"$$$$$$$$$$..====--------..$$**##",
"$$$$$$$$$$  ------------..$$**##",
"$$$$$$$$$$  ------------..$$**##",
"$$$$$$$$$$  ------------..****##",
"$$$$$$$$$$  ------------..****##",
"@@********  ;;;;;;;;;;;;..**@@##",
"@@********  ;;;;;;;;;;;;..**@@##",
"##@@@@@@@@  ;   .......;..@@####",
"##@@@@@@@@  ;   .......;..@@####",
"##$$$$$$$$  ;;;;;  ;;;;;..$$####",
"##$$$$$$$$..;;;;;  ;;;;;..$$####",
"$$$$$$$$$$..%%%%%&&%%%%%..$$**##",
"$$$$$$$$$$..%%%%%&&%%%%%..$$**##",
"$$$$$$$$%%..============..$$**##",
"$$$$$$$$%%..============..$$**##",
"$$$$$$$$%%..==  ......==..$$**##",
"$$$$$$$$%%..==  ......==..$$**##",
"$$$$$$%%%%..==  %%%%  ==  OO**##",
"$$$$$$%%%%..==  %%%%  ==  OO**##",
"$$$$OOOOOO....  OOOO..    ++++##",
"$$$$OOOOOO....  OOOO..    ++++##",
"@@**++++++++ooXXoo++++++++++oo##",
"@@**++++++++ooXXoo++++++++++oo##",
"##@@@@ooooooXXXXXXoooooooooo####",
"##@@@@ooooooXXXXXXoooooooooo####"
};
