/* XPM */
static char *_e9d00f7a63047e3ba8174b29251b687tlHEtRcBLGUhOf6u[] = {
/* columns rows colors chars-per-pixel */
"32 32 13 1 ",
"  c black",
". c #060608",
"X c #34292E",
"o c #3A2A28",
"O c #4D3431",
"+ c #5B3C38",
"@ c #59413E",
"# c #514047",
"$ c #77514C",
"% c #AC3232",
"& c #8D5D57",
"* c #847E87",
"= c #9BADB7",
/* pixels */
"##$$$$$$$$$$##..##$$$$$$$$$$####",
"##$$$$$$$$$$##..%%%%$$$$$$$$####",
"$$$$$$$$$$$$$$  %%%%    $$$$&&##",
"$$$$$$$$$$$$$$  %%%%    $$$$&&##",
"$$$$$$$$$$..  **%%%%**..  $$&&##",
"$$$$$$$$$$..  **%%%%**..  $$&&##",
"$$$$$$$$$$..****====****..  &&##",
"$$$$$$$$$$..****====******  &&##",
"$$$$$$$$..**============**  &&##",
"$$$$$$$$..**==============  &&##",
"$$$$$$$$..================  &&##",
"$$$$$$$$..================  &&##",
"@@&&&&&&..================  @@##",
"@@&&&&&&..===============.  @@##",
"##@@@@@@..**===========**.  ####",
"##@@@@@@..**===========**.  ####",
"##$$$$$$....**========**..  ####",
"##$$$$$$....**========**..  ####",
"$$$$$$$$$$..%%%%%%%%%%%%..$$&&##",
"$$$$$$$$$$..%%%%%%%%%%%%..$$&&##",
"$$$$$$$$%%%%%%%%%%%%%%%%%%$$&&##",
"$$$$$$$$%%%%%%%%%%%%%%%%%%$$&&##",
"$$$$$$$$%%%%%%%%%%%%%%%%%%$$&&##",
"$$$$$$$$%%%%%%%%%%%%%%%%$$$$&&##",
"$$$$$$%%%%%%%%%%%%%%%%%%$$OO&&##",
"$$$$$$%%%%%%%%%%%%%%%%$$$$OO&&##",
"$$$$OOOOOO....XXOO....OOOO++++##",
"$$$$OOOOOO....XXOO....OOOO++++##",
"@@&&++++++++ooXXoo++++++++++oo##",
"@@&&++++++++ooXXoo++++++++++oo##",
"##@@@@ooooooXXXXXXoooooooooo####",
"##@@@@ooooooXXXXXXoooooooooo####"
};
