/* XPM */
static char *_008[] = {
/* columns rows colors chars-per-pixel */
"32 32 10 1 ",
"  c #412320",
". c #59302C",
"X c #59413E",
"o c #514047",
"O c #77514C",
"+ c #434F65",
"@ c #8D5D57",
"# c #6F7F9F",
"$ c #8895AF",
"% c #A6B0C4",
/* pixels */
"ooOOOOOOOOOOooooooOOOOOOOOOOoooo",
"ooOOOOOOOOOOooooooOOOOOOOOOOoooo",
"OOOOOOOOOOOO@@ooOOOOOOOOOOOO@@oo",
"OOOOOOOOOOOO@@ooOOOOOOOOOOOO@@oo",
"OOOOOOOOOOOO@$$$$$$OOOOOOOOO@@oo",
"OOOOOOOOOOOO@$$$$$$OOOOOOOOO@@oo",
"OOOOOOO$$$$$+$$$$$$+$$$$$OOO@@oo",
"OOOOOOO$$$$$+%%%%%%+$$$$$OOO@@oo",
"+$$$$$+$$$$$+######+$$$$$+$$$$$+",
"+$$$$$+%%%%%+######+%%%%%+$$$$$+",
"+$$$$$+#####+######+#####+$$$$$+",
"+%%%%%+#####+######+#####+%%%%%+",
"+#####+#####XXooXX@@#####+#####+",
"+#####@@@@@@XXooXX@@@@@@@@#####+",
"+#####XXXXXXooooooXXXXXXXX#####+",
"++++++XXXXXXooooooXXXXXXXX++++++",
"+%%%%%OOOOOOooooooOOOOOOOO%%%%%+",
"+#####OOOOOOooooooOOOOOOOO#####+",
"+#####OOOOOO@@ooOOOOOOOOOO#####+",
"+#####OOOOOO@@ooOOOOOOOOOO#####+",
"+#####OOOOOO@@ooOOOOOOOOOO#####+",
"++++++OOOOOO@@ooOOOOOOOOOO++++++",
"+%%%%%OOOOOO@@ooOOOOOOOOOO%%%%%+",
"+#####OOOOOO@@ooOOOOOOOOOO#####+",
"+#####OOOOOO@@ooOOOOOOOOOO#####+",
"+#####OOOOOO@@ooOOOOOOOOOO#####+",
"+#####OOOO@@@@ooOOOOOOOOOO#####+",
"++++++OOOO@@        OOOOOO++++++",
"+%%%%%                    %%%%%+",
"+#####                    #####+",
"+#####      . .... .      #####+",
"+#####... ... .... ... ...#####+"
};
