/* XPM */
static char *_005[] = {
/* columns rows colors chars-per-pixel */
"32 33 16 1 ",
"  c None",
". c #412320",
"X c #59302C",
"o c #5C322D",
"O c #6D3B36",
"+ c #59413E",
"@ c #514047",
"# c #77514C",
"$ c #434F65",
"% c #9A544C",
"& c #8D5D57",
"* c #6F7F9F",
"= c gray55",
"- c #8895AF",
"; c gray68",
": c #A6B0C4",
/* pixels */
"                                ",
"@@##########@@@@@@##########@@@@",
"@@##########@@@@@@##########@@@@",
"############&&@@############&&@@",
"############&------#########&&@@",
"############&------#########&&@@",
"#######-----$------$-----###&&@@",
"#######-----$::::::$-----###&&@@",
"$-----$-----$******$-----$-----$",
"$-----$:::::$******$:::::$-----$",
"$-----$*****$******$*****$-----$",
"$:::::$*****$******$*****$:::::$",
"$*****$*****X.XXXX.X*****$*****$",
"$*****XXX.XXX.XXXX.XXX.XXX*****$",
"$*****XXX.OOOoOOOOoOOO.XXX*****$",
"$$$$$$OOOoOOOoOOOOoOOOoOOO$$$$$$",
"$:::::==;oOOOoOOOOoOOOoOOO:::::$",
"$*****=;;oOOOoOOOOoOOOoOOO*****$",
"$*****OOOoO;OoOOOOoO;OoOOO*****$",
"$*****OOOoOOOoOOOOoOOOoOOO*****$",
"$*****OOOoOOOoOOOOoOOOoO;O*****$",
"$$$$$$OOOoOOOoOOOOoOOOoO;O$$$$$$",
"$:::::OOOoOOOoOOOOoOOOoO;O:::::$",
"$*****OOOoOOOoOOOOoOOOoO;O*****$",
"$*****OOOoOOOoOOOOoOOOoO;O*****$",
"$*****OOOoOOOoOOOOoOOOoOOO*****$",
"$*****OOOoOO;oOOOOoO;OoOOO*****$",
"$$$$$$OOOoOOOoOOOOoOOOoOOO$$$$$$",
"$:::::==;oOOOoOOOOoOOOoOOO:::::$",
"$*****=;;oOOOoOOOOoOOOoOOO*****$",
"$*****OOOoOOOoOOOOoOOOoOOO*****$",
"$*****%%%o%%%o%%%%o%%%o%%%*****$",
"@@++++++++++@@@@@@++++++++++@@@@"
};
