/* XPM */
static char *coin_frame1702571748[] = {
/* columns rows colors chars-per-pixel */
"32 32 9 1 ",
"  c black",
". c #663931",
"X c #59413E",
"o c #514047",
"O c #77514C",
"+ c #8D5D57",
"@ c #D18C47",
"# c #D9A066",
"$ c #DDD540",
/* pixels */
"ooOOOOOOOOOOooooooOOOOOOOOOOoooo",
"ooOOOOOOOOOOooooooOOOOOOOOOOoooo",
"OOOOOOOOOOOO++ooOOOOOOOOOOOO++oo",
"OOOOOOOOOOOO++ooOOOOOOOOOOOO++oo",
"OOOOOOOOOOOO++ooOOOOOOOOOOOO++oo",
"OOOOOOOOOOOO++ooOOOOOOOOOOOO++oo",
"OOOOOOOOOOOO++ooOOOOOOOOOOOO++oo",
"OOOOOOOOOOOO++ooOOOOOOOOOOOO++oo",
"OOOOOOOOOOOO++ooOOOOOOOOOOOO++oo",
"OOOOOOOOOOOO++ooOOOOOOOOOOOO++oo",
"OOOOOOOOOO++++ooOOOOOOOOOO++++oo",
"OOOOOOOOOO++++ooOOOOOOOOOO++++oo",
"XX++++++++++XX      ++++++++XXoo",
"XX++++++++++XX      ++++++++XXoo",
"ooXXXXXXXXXX  ..@@##  XXXXXXoooo",
"ooXXXXXXXXXX  ..@@##  XXXXXXoooo",
"ooOOOOOOOO  @@@@..  OOOOOOOOoooo",
"ooOOOOOOOO  @@@@..  OOOOOOOOoooo",
"OOOOOO    $$  ######    OOOO++oo",
"OOOOOO    $$  ######    OOOO++oo",
"OOOO  $$    @@####@@  $$  OO++oo",
"OOOO  $$    @@####@@  $$  OO++oo",
"OO  $$  $$    @@@@$$    OOOO++oo",
"OO  $$  $$    @@@@$$    OOOO++oo",
"OOOO                OOOOOOOO++oo",
"OOOO                OOOOOOOO++oo",
"OOOOOOOOOO++++ooOOOOOOOOOO++++oo",
"OOOOOOOOOO++++ooOOOOOOOOOO++++oo",
"XX++++++++++XXooXX++++++++++XXoo",
"XX++++++++++XXooXX++++++++++XXoo",
"ooXXXXXXXXXXooooooXXXXXXXXXXoooo",
"ooXXXXXXXXXXooooooXXXXXXXXXXoooo"
};
