/* XPM */
static char *_05348b47bed4d2799de7db063831897KdLzMYMTEdJ4VAF1[] = {
/* columns rows colors chars-per-pixel */
"32 32 73 1 ",
"  c #060608",
". c #1B1B1D",
"X c #261716",
"o c #2C191A",
"O c #311C1A",
"+ c #39201F",
"@ c #2F2F31",
"# c #313132",
"$ c #412320",
"% c #532E2B",
"& c #552E29",
"* c #58302B",
"= c #59302C",
"- c #5C322D",
"; c #683833",
": c #6B3A35",
"> c #6D3B36",
", c #723E38",
"< c #444445",
"1 c #514047",
"2 c #4A4756",
"3 c #454B5E",
"4 c #50505E",
"5 c #5D5058",
"6 c #59595A",
"7 c gray36",
"8 c #77514C",
"9 c #7D5753",
"0 c #785956",
"q c #7D5854",
"w c #434F65",
"e c #565361",
"r c #4E5B74",
"t c #7C6361",
"y c #6C6A7B",
"u c gray44",
"i c #9A544C",
"p c #8D5D57",
"a c #856662",
"s c #806D6B",
"d c #8D7471",
"f c #847877",
"g c #80737D",
"h c #596782",
"j c #677388",
"k c #6A748F",
"l c #6D7591",
"z c #6A7998",
"x c #6F7F9F",
"c c #8A7983",
"v c #7685A3",
"b c #828283",
"n c #848484",
"m c gray55",
"M c #958280",
"N c #9D918F",
"B c #848496",
"V c gray58",
"C c gray61",
"Z c #818AA2",
"A c #818CA0",
"S c #868DA2",
"D c #8895AF",
"F c #8A97B1",
"G c #8C98B1",
"H c #939EB7",
"J c #98A4BB",
"K c gray68",
"L c #B7B7B7",
"P c #9FAAC0",
"I c #A6B0C4",
"U c gray92",
"Y c white",
/* pixels */
"11888888888811111188888888881111",
"1188888888881ZZZZZS8888888881111",
"888888888888pDDDDDD888888888pp11",
"8888888BBBBBeDDDDDD4BBBBB888pp11",
"8888888DDDDDwJJJJJJwDDDDD888pp11",
"5ggggg5DDDDDwFFFFFFwDDDDD5ggccy2",
"wDDDDDwHHHHHwxxxxxxwHHHHHwDDDDDw",
"wDDDDDwJJJJJwxxxxxxwJJJJJwDDDDDw",
"wGGGGGwxxxxxwxxxxxxwxxxxxwGGGGGw",
"wPPPPPwxxxxx3kllllk3xxxxxwPPPPPw",
"wxxxxxwxxxxx=$====$=xxxxxwxxxxxw",
"wxxxxx===$===$====$===$===xxxxxw",
"wxxxxx===$:::*::::*:::$===xxxxxw",
"wrrrrr;;;&>>>->>>>->>>&;;;rrrrrw",
"wAAAAAssM->>>-ooooX>>>->>>AAAAAw",
"wFFFFFmCK->>>O#66bb+>>->>>FFFFFw",
"wxxxxxtdd->>+#n66bKb+>->>>xxxxxw",
"wxxxxx>>>->> 7K   7Y >->>>xxxxxw",
"wxxxxx>>>->%.uK@@@uU<%->9>xxxxxw",
"wzzzzz>>>-> 7KKKKKKKY ->K>zzzzzw",
"wwwwww>>>-> 7KKKKKKKY ->K>wwwwww",
"wIIIII>>>-> 7KKK  KKY ->K>IIIIIw",
"wvvvvv>>>-> 7KKK  KKL ->K>vvvvvw",
"wxxxxx>>>-> 7KKK  KKK ->K>xxxxxw",
"wxxxxx>>>-> 7KKKbbKKK ->q>xxxxxw",
"wxxxxx>>>-> 7KKKKKKKK ->>>xxxxxw",
"whhhhh>>>->+#66666666+->>>hhhhhw",
"wjjjjj00a->>oXooooXoo>->>>jjjjjw",
"wJJJJJmVK->>>->>>>->>>->>>JJJJJw",
"wxxxxxfNN->>>->>>>->>>->>>xxxxxw",
"wxxxxx,,,-,,,-,,,,-,,,-,,,xxxxxw",
"wxxxxxiii-iii-iiii-iii-iiixxxxxw"
};
