/* XPM */
static char *d8f5ca5de973468cf374ea293e76e348ldgHrO9CtBCozr71[] = {
/* columns rows colors chars-per-pixel */
"33 32 10 1 ",
"  c None",
". c black",
"X c #33703B",
"o c #37773F",
"O c #59413E",
"+ c #514047",
"@ c #77514C",
"# c #8D5D57",
"$ c #3E8948",
"% c #62B76D",
/* pixels */
" ++@@@@@@@@@@++++++@@@@@@@@@@++++",
" ++@@@@@@@@@@++++++@@@@@@@@@@++++",
" @@@@@@@@@@@@##++@@@@@@@@@@@@##++",
" @@@@@@@@@@@@##++@@@@@@@@@@@@##++",
" @@@@@@@@@@@@##++@@@@@@@@@@@@##++",
" @@@@@@@@@@@@##++@@@@@@@@@@@@##++",
" @@@@@@@@@............@@@@@@@##++",
" @@@@@@@@@............@@@@@@@##++",
" @@@@@....XX$$$$$$$$XX....@@@##++",
" @@@@@....XX$$$$$$$$XX....@@@##++",
" @@@..XXXX$$$$$$$$$$$$XXXX..###++",
" @@@..XXXX$$$$$$$$$$$$XXXX..###++",
" O..XX$$$$$$$$$$$$$$$$$$$$XX..O++",
" O..XX$$$$$$$$$$$$$$$$$$$$XX..O++",
"..XX$$$$%%%%$$$$$$$$$$$$$$$$XX..+",
"..XX$$$$%%%%$$$$$$$$$$$$$$$$XX..+",
"..$$$$%%%%$$$$$$$$$$$$....$$$$..+",
"..$$$$%%%%$$$$$$$$$$$$....$$$$..+",
"..$$$$$$oooo....oooooo....$$$$..+",
"..$$$$$$oooo....oooooo....$$$$..+",
"..$$oooooooo....oooooooooooo$$..+",
"..$$oooooooo....oooooooooooo$$..+",
"..XXooooooooooooooooooooooooXX..+",
"..XXooooooooooooooooooooooooXX..+",
" @..XXXXooooooooooooooooXXXX..#++",
" @..XXXXooooooooooooooooXXXX..#++",
" @@@....XXooooooooooooXX....###++",
" @@@....XXooooooooooooXX....###++",
" OO#####................#####OO++",
" OO#####................#####OO++",
" ++OOOOOOOOOO++++++OOOOOOOOOO++++",
" ++OOOOOOOOOO++++++OOOOOOOOOO++++"
};
