/* XPM */
static char *result[] = {
/* columns rows colors chars-per-pixel */
"50 50 3 1 ",
"  c black",
". c white",
"X c None",
/* pixels */
"XXXXXXXXXXXXXXXXXXXXXXXXXXXXXXXXXXXXXXXXXXXXXXXXXX",
"XXXXXXXXXXXXXXXXXXXXXXXXXXXXXXXXXXXXXXXXXXXXXXXXXX",
"XXXXXXXXXXXXXXXXXXXXXXXXXXXXXXXXXXXXXXXXXXXXXXXXXX",
"XXXXXXXXXXXXXXXXXXXXXXXXXXXXXXXXXXXXXXXXXXXXXXXXXX",
"XXXXXXXXXXXXXXXXXXXXXXXXXXXXXXXXXXXXXXXXXXXXXXXXXX",
"XXXXXXXXXXXXXXXXXXXXXXXXXXXXXXXXXXXXXXXXXXXXXXXXXX",
"XXXXXXXXXXXXXXX....................XXXXXXXXXXXXXXX",
"XXXXXXXXXXXXXXX....................XXXXXXXXXXXXXXX",
"XXXXXXXXXXXXXXX....................XXXXXXXXXXXXXXX",
"XXXXXXXXXXXXXXX....................XXXXXXXXXXXXXXX",
"XXXXXXXXXXXXXXX....................XXXXXXXXXXXXXXX",
"XXXXXXXXXXX..............     .........XXXXXXXXXXX",
"XXXXXXXXXXX..............     .........XXXXXXXXXXX",
"XXXXXXXXXXX..............     .........XXXXXXXXXXX",
"XXXXXXXXXXX..............     .........XXXXXXXXXXX",
"XXXXXXXXXXX..............          ....XXXXXXXXXXX",
"XXXXXXXXXXX..............          ....XXXXXXXXXXX",
"XXXXXXXXXXX..............          ....XXXXXXXXXXX",
"XXXXXXXXXXX..............          ....XXXXXXXXXXX",
"XXXXXXXXXXX..............          ....XXXXXXXXXXX",
"XXXXXXXXXXX...................     ....XXXXXXXXXXX",
"XXXXXXXXXXX...................     ....XXXXXXXXXXX",
"XXXXXXXXXXX...................     ....XXXXXXXXXXX",
"XXXXXXXXXXX...................     ....XXXXXXXXXXX",
"XXXXXXXXXXX...................     ....XXXXXXXXXXX",
"XXXXXXXXXXX...................     ....XXXXXXXXXXX",
"XXXXXXXXXXX...................     ....XXXXXXXXXXX",
"XXXXXXXXXXX...................     ....XXXXXXXXXXX",
"XXXXXXXXXXX...................     ....XXXXXXXXXXX",
"XXXXXXXXXXX...................     ....XXXXXXXXXXX",
"XXXXXXXXXXX..............          ....XXXXXXXXXXX",
"XXXXXXXXXXX..............          ....XXXXXXXXXXX",
"XXXXXXXXXXX..............          ....XXXXXXXXXXX",
"XXXXXXXXXXX..............          ....XXXXXXXXXXX",
"XXXXXXXXXXX..............          ....XXXXXXXXXXX",
"XXXXXXXXXXX..............     .........XXXXXXXXXXX",
"XXXXXXXXXXX..............     .........XXXXXXXXXXX",
"XXXXXXXXXXX..............     .........XXXXXXXXXXX",
"XXXXXXXXXXX..............     .........XXXXXXXXXXX",
"XXXXXXXXXXXXXXX....................XXXXXXXXXXXXXXX",
"XXXXXXXXXXXXXXX....................XXXXXXXXXXXXXXX",
"XXXXXXXXXXXXXXX....................XXXXXXXXXXXXXXX",
"XXXXXXXXXXXXXXX....................XXXXXXXXXXXXXXX",
"XXXXXXXXXXXXXXX....................XXXXXXXXXXXXXXX",
"XXXXXXXXXXXXXXXXXXXXXXXXXXXXXXXXXXXXXXXXXXXXXXXXXX",
"XXXXXXXXXXXXXXXXXXXXXXXXXXXXXXXXXXXXXXXXXXXXXXXXXX",
"XXXXXXXXXXXXXXXXXXXXXXXXXXXXXXXXXXXXXXXXXXXXXXXXXX",
"XXXXXXXXXXXXXXXXXXXXXXXXXXXXXXXXXXXXXXXXXXXXXXXXXX",
"XXXXXXXXXXXXXXXXXXXXXXXXXXXXXXXXXXXXXXXXXXXXXXXXXX",
"XXXXXXXXXXXXXXXXXXXXXXXXXXXXXXXXXXXXXXXXXXXXXXXXXX"
};