/* XPM */
static char *d692688fa2cb4d5990b1891dd40733d25Q8r0M2tsCcsojWZ[] = {
/* columns rows colors chars-per-pixel */
"32 32 14 1 ",
"  c #060608",
". c #34292E",
"X c #3A2A28",
"o c #4D3431",
"O c #5B3C38",
"+ c #59413E",
"@ c #514047",
"# c #77514C",
"$ c #AC3232",
"% c #DF7126",
"& c #8D5D57",
"* c #847E87",
"= c #9BADB7",
"- c white",
/* pixels */
"@@##########@@@@  ##########@@@@",
"@@##########@@@@  ##########@@@@",
"############&&  $$    ######&&@@",
"############&&  $$    ######&&@@",
"########        **$$  ######&&@@",
"########        **$$  ######&&@@",
"######  ========****  ######&&@@",
"######  ========****  ######&&@@",
"######  ============**  ####&&@@",
"######  ============**  ####&&@@",
"######  ==============  ##&&&&@@",
"######  ==============  ##&&&&@@",
"++&&&&  ----------====  &&&&++@@",
"++&&&&  ----------====  &&&&++@@",
"@@++++          --==**  ++++@@@@",
"@@++++          --==**  ++++@@@@",
"@@####  --  ------**    ####@@@@",
"@@####  --  ------**    ####@@@@",
"######  $$%%$$$$$$$$  ######&&@@",
"######  $$%%$$$$$$$$  ######&&@@",
"######  ************  $$####&&@@",
"######  ************  $$####&&@@",
"######  **      ****  $$####&&@@",
"######  **      ****  $$####&&@@",
"####oooo  **  $$  **  $$$$##&&@@",
"####oooo  **  $$  **  $$$$##&&@@",
"##oooooooo    ..oo    ooooOO&&@@",
"##oooooooo    ..oo    ooooOO&&@@",
"++OOOOOOOOOOXX..XXOOOOOOOOOO++@@",
"++OOOOOOOOOOXX..XXOOOOOOOOOO++@@",
"@@++XXXXXXXX......XXXXXXXX++@@@@",
"@@++XXXXXXXX......XXXXXXXX++@@@@"
};
