/* XPM */
static char *_7011fa59dbc4e06bf31d07c37c5df73ySFAwChm9Mp4eY9A[] = {
/* columns rows colors chars-per-pixel */
"32 32 45 1 ",
"  c #060608",
". c #0F0C0D",
"X c #110D0E",
"o c #1B0C0D",
"O c #0F0D10",
"+ c #140F11",
"@ c #171112",
"# c #161518",
"$ c #191B1E",
"% c #252527",
"& c #34292E",
"* c #3A2A28",
"= c #3E2D2B",
"- c #442E2C",
"; c #4D3431",
": c #4E3937",
"> c #47393F",
", c #523834",
"< c #553E3B",
"1 c #5B3C38",
"2 c #59413E",
"3 c #61403C",
"4 c #514047",
"5 c #694743",
"6 c #724D48",
"7 c #7E4D49",
"8 c #77514C",
"9 c #7C524D",
"0 c #746F77",
"q c #972C2D",
"w c #AC3232",
"e c #A73C3D",
"r c #B23A30",
"t c #D86928",
"y c #DF7126",
"u c #875953",
"i c #8D5D57",
"p c #847E87",
"a c #87848D",
"s c #938E96",
"d c #8898A1",
"f c #9BADB7",
"g c #A8B7C0",
"h c gray88",
"j c white",
/* pixels */
"448888888888> O44488888888884444",
"448888888888> O44488888888884444",
"888888885   owq +88888888888ii44",
"888888885   owq +88888888888ii44",
"888888885 owep0       +88888ii44",
"888888885 owep0       +88888ii44",
"888888885 #pppafffffffd +888ii44",
"888888885 #pppafffffffd +888ii44",
"8888885 #pafffffffffffd +888ii44",
"8888885 #pafffffffffffd +888ii44",
"8888885 $fffffffffffffd +8iiii44",
"8888885 $fffffffffffffd +8iiii44",
"22iiii9 $fffgjjjjjjjjjh @iii2244",
"22iiii9 $fffgjjjjjjjjjh @iii2244",
"442222: #pafgjh         X2224444",
"442222: #pafgjh         X2224444",
"4488885   #psjjjjjh %jh +8884444",
"4488885   #psjjjjjh %jh +8884444",
"888888885 owwwwwwwrytwq +888ii44",
"888888885 owwwwwwwrytwq +888ii44",
"8888887wq #ppppppppppp0 +888ii44",
"8888887wq #ppppppppppp0 +888ii44",
"8888887wq #ppp0     #p0 +888ii44",
"8888887wq #ppp0     #p0 +888ii44",
"88887wwwq #p0 owq #p0 .;;;,8ii44",
"88887wwwq #p0 owq #p0 .;;;,8ii44",
"886;;;;;-   X1&&-   .;;;;;113i44",
"886;;;;;-   X1&&-   .;;;;;113i44",
"22u111111111**&&**1111111111=244",
"22u111111111**&&**1111111111=244",
"4422<*******&&&&&&********=24444",
"4422<*******&&&&&&********=24444"
};
